<?xml version="1.0" encoding="utf-8"?><svg version="1.1" id="Layer_1" xmlns="http://www.w3.org/2000/svg" xmlns:xlink="http://www.w3.org/1999/xlink" x="0px" y="0px" viewBox="0 0 92.81 122.88" style="enable-background:new 0 0 92.81 122.88" xml:space="preserve"><style type="text/css">.st0{fill-rule:evenodd;clip-rule:evenodd;}</style><g><path class="st0" d="M66.69,101.35H26.68l-4.7,6.94h49.24L66.69,101.35L66.69,101.35z M17.56,114.81l-5.47,8.07H0l19.64-29.46 h-3.49c-4.76,0-8.66-3.9-8.66-8.66V8.66C7.5,3.9,11.39,0,16.15,0h61.22c4.76,0,8.66,3.9,8.66,8.66v76.1c0,4.76-3.9,8.66-8.66,8.66 h-3.4l18.83,29.04H80.45l-4.99-7.65H17.56L17.56,114.81z M62.97,67.66h10.48c1.14,0,2.07,0.93,2.07,2.07V80.2 c0,1.14-0.93,2.07-2.07,2.07H62.97c-1.14,0-2.07-0.93-2.07-2.07V69.72C60.9,68.59,61.83,67.66,62.97,67.66L62.97,67.66z M18.98,67.66h10.48c1.14,0,2.07,0.93,2.07,2.07V80.2c0,1.14-0.93,2.07-2.07,2.07H18.98c-1.14,0-2.07-0.93-2.07-2.07V69.72 C16.91,68.59,17.84,67.66,18.98,67.66L18.98,67.66z M25.1,16.7h42.81c4.6,0,8.36,3.76,8.36,8.37v13.17c0,4.6-3.76,8.36-8.36,8.36 H25.1c-4.6,0-8.36-3.76-8.36-8.36V25.07C16.74,20.47,20.5,16.7,25.1,16.7L25.1,16.7z M38.33,3.8h16.2C55.34,3.8,56,4.46,56,5.27 v6.38c0,0.81-0.66,1.47-1.47,1.47h-16.2c-0.81,0-1.47-0.66-1.47-1.47V5.27C36.85,4.46,37.51,3.8,38.33,3.8L38.33,3.8z"/></g></svg>